<svg xmlns="http://www.w3.org/2000/svg" width="1400" height="800" fill="none" viewBox="0 0 1400 800"><path stroke="#fff" stroke-opacity=".07" d="M168 0.00195312V1260"/><path stroke="#fff" stroke-opacity=".07" d="M188 0.00195312V1260"/><path stroke="#fff" stroke-opacity=".07" d="M208 0.00195312V1260"/><path stroke="#fff" stroke-opacity=".07" d="M228 0.00195312V1260"/><path stroke="#fff" stroke-opacity=".07" d="M248 0.00195312V1260"/><path stroke="#fff" stroke-opacity=".07" d="M268 0.00195312V1260"/><path stroke="#fff" stroke-opacity=".07" d="M288 0.00195312V1260"/><path stroke="#fff" stroke-opacity=".07" d="M308 0.00195312V1260"/><path stroke="#fff" stroke-opacity=".07" d="M328 0.00195312V1260"/><path stroke="#fff" stroke-opacity=".07" d="M348 0.00195312V1260"/><path stroke="#fff" stroke-opacity=".07" d="M368 0.00195312V1260"/><path stroke="#fff" stroke-opacity=".07" d="M8 0V1260"/><path stroke="#fff" stroke-opacity=".07" d="M28 0V1260"/><path stroke="#fff" stroke-opacity=".07" d="M48 0V1260"/><path stroke="#fff" stroke-opacity=".07" d="M68 0V1260"/><path stroke="#fff" stroke-opacity=".07" d="M88 0V1260"/><path stroke="#fff" stroke-opacity=".07" d="M108 0V1260"/><path stroke="#fff" stroke-opacity=".07" d="M128 0V1260"/><path stroke="#fff" stroke-opacity=".07" d="M148 0V1260"/><path stroke="#fff" stroke-opacity=".07" d="M388 0.00195312V1260"/><path stroke="#fff" stroke-opacity=".07" d="M408 0.00195312V1260"/><path stroke="#fff" stroke-opacity=".07" d="M428 0.00195312V1260"/><path stroke="#fff" stroke-opacity=".07" d="M448 0.00195312V1260"/><path stroke="#fff" stroke-opacity=".07" d="M468 0.00195312V1260"/><path stroke="#fff" stroke-opacity=".07" d="M488 0.00195312V1260"/><path stroke="#fff" stroke-opacity=".07" d="M508 0.00195312V1260"/><path stroke="#fff" stroke-opacity=".07" d="M528 0.00195312V1260"/><path stroke="#fff" stroke-opacity=".07" d="M548 0.00195312V1260"/><path stroke="#fff" stroke-opacity=".07" d="M568 0.00195312V1260"/><path stroke="#fff" stroke-opacity=".07" d="M588 0.00195312V1260"/><path stroke="#fff" stroke-opacity=".07" d="M608 0.00195312V1260"/><path stroke="#fff" stroke-opacity=".07" d="M628 0.00195312V1260"/><path stroke="#fff" stroke-opacity=".07" d="M648 0.00195312V1260"/><path stroke="#fff" stroke-opacity=".07" d="M668 0.00195312V1260"/><path stroke="#fff" stroke-opacity=".07" d="M688 0.00195312V1260"/><path stroke="#fff" stroke-opacity=".07" d="M708 0.00195312V1260"/><path stroke="#fff" stroke-opacity=".07" d="M728 0.00195312V1260"/><path stroke="#fff" stroke-opacity=".07" d="M748 0.00195312V1260"/><path stroke="#fff" stroke-opacity=".07" d="M768 0.00195312V1260"/><path stroke="#fff" stroke-opacity=".07" d="M788 0.00195312V1260"/><path stroke="#fff" stroke-opacity=".07" d="M808 0.00195312V1260"/><path stroke="#fff" stroke-opacity=".07" d="M828 0.00195312V1260"/><path stroke="#fff" stroke-opacity=".07" d="M848 0.00195312V1260"/><path stroke="#fff" stroke-opacity=".07" d="M868 0.00195312V1260"/><path stroke="#fff" stroke-opacity=".07" d="M888 0.00195312V1260"/><path stroke="#fff" stroke-opacity=".07" d="M908 0.00195312V1260"/><path stroke="#fff" stroke-opacity=".07" d="M928 0.00195312V1260"/><path stroke="#fff" stroke-opacity=".07" d="M948 0.00195312V1260"/><path stroke="#fff" stroke-opacity=".07" d="M968 0.00195312V1260"/><path stroke="#fff" stroke-opacity=".07" d="M988 0.00195312V1260"/><path stroke="#fff" stroke-opacity=".07" d="M1008 0.00195312V1260"/><path stroke="#fff" stroke-opacity=".07" d="M1028 0.00195312V1260"/><path stroke="#fff" stroke-opacity=".07" d="M1048 0.00195312V1260"/><path stroke="#fff" stroke-opacity=".07" d="M1068 0.00195312V1260"/><path stroke="#fff" stroke-opacity=".07" d="M1088 0.00195312V1260"/><path stroke="#fff" stroke-opacity=".07" d="M1108 0.00195312V1260"/><path stroke="#fff" stroke-opacity=".07" d="M1128 0.00195312V1260"/><path stroke="#fff" stroke-opacity=".07" d="M1148 0.00195312V1260"/><path stroke="#fff" stroke-opacity=".07" d="M1168 0.00195312V1260"/><path stroke="#fff" stroke-opacity=".07" d="M1188 0.00195312V1260"/><path stroke="#fff" stroke-opacity=".07" d="M1208 0.00195312V1260"/><path stroke="#fff" stroke-opacity=".07" d="M1228 0.00195312V1260"/><path stroke="#fff" stroke-opacity=".07" d="M1248 0.00195312V1260"/><path stroke="#fff" stroke-opacity=".07" d="M1268 0.00195312V1260"/><path stroke="#fff" stroke-opacity=".07" d="M1288 0.00195312V1260"/><path stroke="#fff" stroke-opacity=".07" d="M1308 0.00195312V1260"/><path stroke="#fff" stroke-opacity=".07" d="M1328 0.00195312V1260"/><path stroke="#fff" stroke-opacity=".07" d="M1348 0.00195312V1260"/><path stroke="#fff" stroke-opacity=".07" d="M1368 0.00195312V1260"/><path stroke="#fff" stroke-opacity=".07" d="M1388 0.00195312V1260"/><path stroke="#fff" stroke-opacity=".07" d="M-52 800L1477 800"/><path stroke="#fff" stroke-opacity=".07" d="M-52 780L1477 780"/><path stroke="#fff" stroke-opacity=".07" d="M-52 760L1477 760"/><path stroke="#fff" stroke-opacity=".07" d="M-52 740L1477 740"/><path stroke="#fff" stroke-opacity=".07" d="M-52 720L1477 720"/><path stroke="#fff" stroke-opacity=".07" d="M-52 700L1477 700"/><path stroke="#fff" stroke-opacity=".07" d="M-52 680L1477 680"/><path stroke="#fff" stroke-opacity=".07" d="M-52 660L1477 660"/><path stroke="#fff" stroke-opacity=".07" d="M-52 640L1477 640"/><path stroke="#fff" stroke-opacity=".07" d="M-52 620L1477 620"/><path stroke="#fff" stroke-opacity=".07" d="M-52 600L1477 600"/><path stroke="#fff" stroke-opacity=".07" d="M-52 580L1477 580"/><path stroke="#fff" stroke-opacity=".07" d="M-52 560L1477 560"/><path stroke="#fff" stroke-opacity=".07" d="M-52 540L1477 540"/><path stroke="#fff" stroke-opacity=".07" d="M-52 520L1477 520"/><path stroke="#fff" stroke-opacity=".07" d="M-52 500L1477 500"/><path stroke="#fff" stroke-opacity=".07" d="M-52 480L1477 480"/><path stroke="#fff" stroke-opacity=".07" d="M-52 460L1477 460"/><path stroke="#fff" stroke-opacity=".07" d="M-52 440L1477 440"/><path stroke="#fff" stroke-opacity=".07" d="M-52 420L1477 420"/><path stroke="#fff" stroke-opacity=".07" d="M-52 400L1477 400"/><path stroke="#fff" stroke-opacity=".07" d="M-52 380L1477 380"/><path stroke="#fff" stroke-opacity=".07" d="M-52 360L1477 360"/><path stroke="#fff" stroke-opacity=".07" d="M-52 340L1477 340"/><path stroke="#fff" stroke-opacity=".07" d="M-52 320L1477 320"/><path stroke="#fff" stroke-opacity=".07" d="M-52 300L1477 300"/><path stroke="#fff" stroke-opacity=".07" d="M-52 280L1477 280"/><path stroke="#fff" stroke-opacity=".07" d="M-52 260L1477 260"/><path stroke="#fff" stroke-opacity=".07" d="M-52 240L1477 240"/><path stroke="#fff" stroke-opacity=".07" d="M-52 220L1477 220"/><path stroke="#fff" stroke-opacity=".07" d="M-52 200L1477 200"/><path stroke="#fff" stroke-opacity=".07" d="M-52 180L1477 180"/><path stroke="#fff" stroke-opacity=".07" d="M-52 160L1477 160"/><path stroke="#fff" stroke-opacity=".07" d="M-52 140L1477 140"/><path stroke="#fff" stroke-opacity=".07" d="M-52 120L1477 120"/><path stroke="#fff" stroke-opacity=".07" d="M-52 100L1477 99.9999"/><path stroke="#fff" stroke-opacity=".07" d="M-52 80L1477 79.9999"/><path stroke="#fff" stroke-opacity=".07" d="M-52 60L1477 59.9999"/><path stroke="#fff" stroke-opacity=".07" d="M-52 40L1477 39.9999"/><path stroke="#fff" stroke-opacity=".07" d="M-52 20L1477 19.9999"/><path stroke="#fff" stroke-opacity=".07" d="M-52 0L1477 -6.68347e-05"/></svg>